<svg width="108" height="108" viewBox="0 0 108 108" fill="none" xmlns="http://www.w3.org/2000/svg">
<g clip-path="url(#clip0_116_579)" filter="url(#filter0_d_116_579)">
<path fill-rule="evenodd" clip-rule="evenodd" d="M54 93.75C65.6032 93.75 76.7312 89.1406 84.9359 80.9359C93.1406 72.7312 97.75 61.6032 97.75 50C97.75 38.3968 93.1406 27.2688 84.9359 19.0641C76.7312 10.8594 65.6032 6.25 54 6.25C42.3968 6.25 31.2688 10.8594 23.0641 19.0641C14.8594 27.2688 10.25 38.3968 10.25 50C10.25 61.6032 14.8594 72.7312 23.0641 80.9359C31.2688 89.1406 42.3968 93.75 54 93.75ZM54 100C67.2608 100 79.9785 94.7322 89.3553 85.3553C98.7322 75.9785 104 63.2608 104 50C104 36.7392 98.7322 24.0215 89.3553 14.6447C79.9785 5.26784 67.2608 0 54 0C40.7392 0 28.0215 5.26784 18.6447 14.6447C9.26784 24.0215 4 36.7392 4 50C4 63.2608 9.26784 75.9785 18.6447 85.3553C28.0215 94.7322 40.7392 100 54 100Z" fill="#56B280" fill-opacity="0.6"/>
<path fill-rule="evenodd" clip-rule="evenodd" d="M72.5626 31.0625C73.4373 30.1955 74.6181 29.7075 75.8497 29.7041C77.0813 29.7007 78.2648 30.1822 79.1442 31.0444C80.0237 31.9066 80.5285 33.0803 80.5494 34.3117C80.5704 35.5431 80.1059 36.7334 79.2564 37.625L54.3064 68.8125C53.8776 69.2744 53.36 69.6451 52.7847 69.9023C52.2094 70.1596 51.5881 70.2982 50.958 70.3099C50.3278 70.3216 49.7018 70.2061 49.1174 69.9703C48.5329 69.7345 48.002 69.3832 47.5564 68.9375L31.0251 52.4C30.5646 51.9709 30.1952 51.4534 29.939 50.8784C29.6828 50.3034 29.545 49.6827 29.5339 49.0533C29.5228 48.4239 29.6386 47.7987 29.8744 47.2151C30.1101 46.6314 30.461 46.1012 30.9061 45.6561C31.3513 45.2109 31.8815 44.86 32.4651 44.6243C33.0488 44.3885 33.674 44.2727 34.3034 44.2838C34.9328 44.295 35.5535 44.4327 36.1285 44.6889C36.7035 44.9451 37.221 45.3145 37.6501 45.775L50.7376 58.8563L72.4439 31.2C72.4826 31.1516 72.5244 31.1057 72.5689 31.0625H72.5626Z" fill="#56B280" fill-opacity="0.6"/>
</g>
<defs>
<filter id="filter0_d_116_579" x="0" y="0" width="108" height="108" filterUnits="userSpaceOnUse" color-interpolation-filters="sRGB">
<feFlood flood-opacity="0" result="BackgroundImageFix"/>
<feColorMatrix in="SourceAlpha" type="matrix" values="0 0 0 0 0 0 0 0 0 0 0 0 0 0 0 0 0 0 127 0" result="hardAlpha"/>
<feOffset dy="4"/>
<feGaussianBlur stdDeviation="2"/>
<feComposite in2="hardAlpha" operator="out"/>
<feColorMatrix type="matrix" values="0 0 0 0 0 0 0 0 0 0 0 0 0 0 0 0 0 0 0.25 0"/>
<feBlend mode="normal" in2="BackgroundImageFix" result="effect1_dropShadow_116_579"/>
<feBlend mode="normal" in="SourceGraphic" in2="effect1_dropShadow_116_579" result="shape"/>
</filter>
<clipPath id="clip0_116_579">
<rect width="100" height="100" fill="white" transform="translate(4)"/>
</clipPath>
</defs>
</svg>
